<svg xmlns="http://www.w3.org/2000/svg" width="114.823" height="60" viewBox="0 0 114.823 60"><g transform="translate(-53.205 -132.564)"><path d="M77.071,145.3h98.71a5.132,5.132,0,0,1,5.092,5.142v45.624a5.132,5.132,0,0,1-5.092,5.142H77.071a5.132,5.132,0,0,1-5.092-5.142V150.442a5.132,5.132,0,0,1,5.092-5.142" transform="translate(-15.843 -10.748)" fill="none" fill-rule="evenodd"/><path d="M162.939,137.733H59.536c-.317,0-1.245.174-1.245.634v48.459c0,.385.97.571,1.245.571H161.573c.3,0,1.3-.2,1.369-.571V140.68ZM58.817,132.564H168.028v53.958c0,3.085-2.465,6.042-5.612,6.042H58.817a5.842,5.842,0,0,1-5.612-6.042V138.731C53.205,135.57,55.554,132.564,58.817,132.564Z" fill="#0082c1" fill-rule="evenodd"/><path d="M237.7,240.87h6.2l-7.184,17.982h-6.324Zm-18.641,6.453-.852,2.179-1.387,3.54h5.037a1.578,1.578,0,0,0,1.228-.738l1.54-4.022.13-.346a.589.589,0,0,0-.564-.849h-5.038l-.092.235Zm-17.965,11.529H187.915c-1.453,0-2.163-1.2-1.575-2.67l6.118-15.287h6.4L194.4,252.127c-.2.5.042.916.541.916h4.136a1.593,1.593,0,0,0,1.339-.963l4.435-11.185h6.207L205,256.045A4.649,4.649,0,0,1,201.094,258.852Zm9.6,0h-2.651l1.03-2.545q.022-.062.046-.125l10.728-27.227h6.4l-4.82,12.324h9.17a2.043,2.043,0,0,1,1.82,2.917l-4.787,12.22c-.606,1.548-1.466,2.437-3.021,2.437H210.694Zm-29.274,0H165.2c-1.371,0-2.041-1.134-1.486-2.519l10.96-27.386h6.329l-9.092,22.664c-.316.788.065,1.435.846,1.435h10.984Z" transform="translate(-93.095 -81.336)" fill="#0082c1" fill-rule="evenodd"/><path d="M658.736,233.61h1.771l-.724,1.788h-1.771Zm.879-2.2h1.771l-.724,1.788h-1.771Zm-1.315,2.2H656.53l-.724,1.788h1.771Zm.879-2.2h-1.771l-.724,1.788h1.771Zm-4.856,2.2h1.771l-.724,1.788H653.6Zm.879-2.2h1.771l-.724,1.788h-1.771Zm5.292-2.2h1.771L661.541,231H659.77Zm-.436,0h-1.771L657.564,231h1.771Zm-3.977,0h1.771L657.129,231h-1.771Z" transform="translate(-506.661 -81.56)" fill="#0082c1" fill-rule="evenodd"/></g></svg>